<svg width="80" height="80" viewBox="0 0 80 80" fill="none" xmlns="http://www.w3.org/2000/svg">
<path d="M40.1334 8.33333L31.7667 16.6667H48.4334L40.1334 8.33333ZM13.3334 23.3333V66.6667H66.6667V23.3333H13.3334ZM40 0L56.6667 16.6667H66.6667C68.4348 16.6667 70.1305 17.369 71.3807 18.6193C72.631 19.8695 73.3334 21.5652 73.3334 23.3333V66.6667C73.3334 68.4348 72.631 70.1305 71.3807 71.3807C70.1305 72.631 68.4348 73.3333 66.6667 73.3333H13.3334C11.5652 73.3333 9.86955 72.631 8.61931 71.3807C7.36907 70.1305 6.66669 68.4348 6.66669 66.6667V23.3333C6.66669 21.5652 7.36907 19.8695 8.61931 18.6193C9.86955 17.369 11.5652 16.6667 13.3334 16.6667H23.3334L40 0ZM23.3334 60V46.6667H40V60H23.3334ZM46.6667 56.6667V33.3333H60V56.6667H46.6667ZM20 40V30H36.6667V40H20Z" fill="#444444"/>
</svg>
