<svg width="80" height="80" viewBox="0 0 80 80" fill="none" xmlns="http://www.w3.org/2000/svg">
<g clip-path="url(#clip0_964_516)">
<path d="M42.14 12.7C43.48 11.8667 45.12 11.72 46.5667 12.27L47.04 12.48L71.8533 25.0167C72.9019 25.5502 73.7305 26.4341 74.1951 27.515C74.6597 28.5959 74.7311 29.8054 74.3967 30.9333C73.0967 35.37 73.24 37.2333 74.09 39.3367C74.89 41.32 74.4233 43.81 72.5567 45.2733L72.1333 45.5733L37.8533 67.27C36.4167 68.18 34.5867 68.32 32.9967 67.5433L20.1967 61.2267L14.85 58.5433L11.05 56.6033L8.73 55.3867L7.53 54.7333L6.66 54.2333C3.26 52.1833 2.2 48.0167 2.22 44.8333C2.23334 41.5967 3.34667 37.5533 6.43667 35.3333L7.43667 34.6433L10.2967 32.7733L17.1133 28.42L42.14 12.7033V12.7ZM66.7767 35.6267L37.8667 53.9267C37.6333 54.0767 37.3867 54.2033 37.1367 54.31C36.77 55.67 36.6433 56.6467 36.6567 57.5533C36.6633 58.0967 36.7233 58.6467 36.84 59.2767L36.98 59.9333L67.4733 40.6333C67.0376 39.2918 66.8017 37.8935 66.7733 36.4833L66.7767 35.6267ZM9.33334 42.26C9.03241 43.0936 8.88119 43.9738 8.88667 44.86C8.87667 47.1 9.67667 48.27 10.1033 48.5267L11.13 49.11L13.2167 50.22L19.1167 53.23L30.0333 58.6667C30.0066 58.3306 29.9911 57.9938 29.9867 57.6567C29.9779 56.0813 30.1796 54.5119 30.5867 52.99L9.33334 42.2567V42.26ZM64.8567 28.9533L44.8733 18.8533L22.34 33L15.0133 37.6633L35.1 47.7967L64.8567 28.9567V28.9533ZM42.0467 24.4533C42.4256 23.7293 43.0574 23.1697 43.8218 22.8808C44.5863 22.592 45.4303 22.5941 46.1933 22.8867L46.5467 23.0467L53.5467 26.7133C54.3033 27.1061 54.8807 27.774 55.1601 28.5794C55.4395 29.3849 55.3996 30.2668 55.0487 31.0438C54.6978 31.8208 54.0625 32.4338 53.2735 32.7567C52.4844 33.0797 51.6017 33.088 50.8067 32.78L50.4533 32.62L43.4533 28.9533C43.0655 28.7503 42.7214 28.4728 42.4408 28.1367C42.1601 27.8007 41.9485 27.4126 41.8178 26.9947C41.6872 26.5768 41.6402 26.1373 41.6794 25.7013C41.7187 25.2652 41.8435 24.8412 42.0467 24.4533Z" fill="#444444"/>
</g>
<defs>
<clipPath id="clip0_964_516">
<rect width="80" height="80" fill="white"/>
</clipPath>
</defs>
</svg>
