<svg width="80" height="80" viewBox="0 0 80 80" fill="none" xmlns="http://www.w3.org/2000/svg">
<g clip-path="url(#clip0_964_513)">
<path d="M63.3333 13.3333C65.9855 13.3333 68.529 14.3869 70.4044 16.2622C72.2798 18.1376 73.3333 20.6811 73.3333 23.3333V56.6666C73.3333 59.3188 72.2798 61.8624 70.4044 63.7377C68.529 65.6131 65.9855 66.6666 63.3333 66.6666H16.6667C14.0145 66.6666 11.471 65.6131 9.59559 63.7377C7.72023 61.8624 6.66666 59.3188 6.66666 56.6666V23.3333C6.66666 20.6811 7.72023 18.1376 9.59559 16.2622C11.471 14.3869 14.0145 13.3333 16.6667 13.3333H63.3333ZM66.6667 33.3333H13.3333V56.6666C13.3334 57.4831 13.6332 58.2711 14.1757 58.8812C14.7182 59.4913 15.4658 59.8811 16.2767 59.9766L16.6667 60H63.3333C64.1498 59.9999 64.9378 59.7001 65.5479 59.1576C66.158 58.6151 66.5478 57.8675 66.6433 57.0566L66.6667 56.6666V33.3333ZM56.6667 43.3333C57.5163 43.3343 58.3334 43.6596 58.9512 44.2428C59.569 44.826 59.9408 45.6232 59.9906 46.4713C60.0404 47.3194 59.7644 48.1546 59.2191 48.8061C58.6738 49.4576 57.9003 49.8763 57.0567 49.9766L56.6667 50H46.6667C45.8171 49.999 44.9999 49.6737 44.3821 49.0905C43.7643 48.5073 43.3925 47.7101 43.3428 46.862C43.293 46.0139 43.5689 45.1787 44.1142 44.5272C44.6595 43.8757 45.433 43.457 46.2767 43.3566L46.6667 43.3333H56.6667ZM63.3333 20H16.6667C15.7826 20 14.9348 20.3512 14.3096 20.9763C13.6845 21.6014 13.3333 22.4493 13.3333 23.3333V26.6666H66.6667V23.3333C66.6667 22.4493 66.3155 21.6014 65.6903 20.9763C65.0652 20.3512 64.2174 20 63.3333 20Z" fill="#444444"/>
</g>
<defs>
<clipPath id="clip0_964_513">
<rect width="80" height="80" fill="white"/>
</clipPath>
</defs>
</svg>
