<svg width="80" height="80" viewBox="0 0 80 80" fill="none" xmlns="http://www.w3.org/2000/svg">
<path d="M72.5833 63.0833L66.6667 57.1667V40H49.5L36.1667 26.6667H66.6667V20H29.5L22.8333 13.3334H66.6667C68.5 13.3334 70.07 13.9867 71.3767 15.2934C72.6811 16.5978 73.3333 18.1667 73.3333 20V60C73.3333 60.5556 73.2778 61.0978 73.1667 61.6267C73.0555 62.1534 72.8611 62.6389 72.5833 63.0833ZM30.5 40H13.3333V60H50.5L30.5 40ZM68.1667 77.6667L57.1667 66.6667H13.3333C11.5 66.6667 9.9311 66.0145 8.62666 64.71C7.31999 63.4034 6.66666 61.8334 6.66666 60V20C6.66666 18.1667 7.31999 16.5978 8.62666 15.2934C9.9311 13.9867 11.5 13.3334 13.3333 13.3334L20 20H13.3333V26.6667H17.1667L2.16666 11.6667L6.91666 6.91669L72.9167 72.9167L68.1667 77.6667Z" fill="#444444"/>
</svg>
