<svg width="80" height="80" viewBox="0 0 80 80" fill="none" xmlns="http://www.w3.org/2000/svg">
<g clip-path="url(#clip0_963_564)">
<path fill-rule="evenodd" clip-rule="evenodd" d="M39.9999 47.07L57.6766 64.75C58.6146 65.688 59.8868 66.2149 61.2133 66.2149C62.5398 66.2149 63.812 65.688 64.7499 64.75C65.6879 63.812 66.2149 62.5398 66.2149 61.2133C66.2149 59.8868 65.6879 58.6146 64.7499 57.6767L47.0666 40L64.7466 22.3233C65.2108 21.8589 65.579 21.3076 65.8302 20.7008C66.0813 20.0941 66.2105 19.4438 66.2104 18.7872C66.2102 18.1305 66.0807 17.4803 65.8293 16.8737C65.5778 16.267 65.2094 15.7159 64.7449 15.2517C64.2805 14.7874 63.7292 14.4192 63.1224 14.1681C62.5157 13.9169 61.8654 13.7878 61.2088 13.7879C60.5521 13.7881 59.9019 13.9176 59.2953 14.169C58.6887 14.4204 58.1375 14.7889 57.6733 15.2533L39.9999 32.93L22.3233 15.2533C21.8623 14.7756 21.3107 14.3944 20.7008 14.1321C20.0909 13.8697 19.4349 13.7315 18.771 13.7254C18.1071 13.7193 17.4487 13.8455 16.8341 14.0967C16.2195 14.3478 15.661 14.7188 15.1914 15.188C14.7217 15.6573 14.3501 16.2153 14.0984 16.8297C13.8468 17.4441 13.7199 18.1024 13.7254 18.7663C13.7308 19.4302 13.8685 20.0864 14.1302 20.6965C14.392 21.3066 14.7726 21.8585 15.2499 22.32L32.9333 40L15.2533 57.6767C14.3153 58.6146 13.7883 59.8868 13.7883 61.2133C13.7883 62.5398 14.3153 63.812 15.2533 64.75C16.1913 65.688 17.4634 66.2149 18.7899 66.2149C20.1164 66.2149 21.3886 65.688 22.3266 64.75L39.9999 47.0667V47.07Z" fill="#444444"/>
</g>
<defs>
<clipPath id="clip0_963_564">
<rect width="80" height="80" fill="white"/>
</clipPath>
</defs>
</svg>
