<svg width="80" height="80" viewBox="0 0 80 80" fill="none" xmlns="http://www.w3.org/2000/svg">
<g clip-path="url(#clip0_964_567)">
<path d="M40 6.66669C58.41 6.66669 73.3333 21.59 73.3333 40C73.3333 58.41 58.41 73.3334 40 73.3334C21.59 73.3334 6.66667 58.41 6.66667 40C6.66667 21.59 21.59 6.66669 40 6.66669ZM40 13.3334C32.9276 13.3334 26.1448 16.1429 21.1438 21.1438C16.1429 26.1448 13.3333 32.9276 13.3333 40C13.3333 47.0725 16.1429 53.8552 21.1438 58.8562C26.1448 63.8572 32.9276 66.6667 40 66.6667C47.0724 66.6667 53.8552 63.8572 58.8562 58.8562C63.8572 53.8552 66.6667 47.0725 66.6667 40C66.6667 32.9276 63.8572 26.1448 58.8562 21.1438C53.8552 16.1429 47.0724 13.3334 40 13.3334ZM40 23.3334C42.3647 23.3309 44.7028 23.8326 46.8583 24.8052C49.0138 25.7778 50.9371 27.1987 52.5 28.9734C53.0853 29.6364 53.3831 30.5048 53.3281 31.3874C53.2731 32.2701 52.8697 33.0948 52.2067 33.68C51.5436 34.2653 50.6753 34.5631 49.7926 34.5081C48.9099 34.4531 48.0853 34.0497 47.5 33.3867C46.1566 31.863 44.3811 30.7846 42.4096 30.2949C40.4382 29.8052 38.3644 29.9276 36.4642 30.6456C34.564 31.3637 32.9276 32.6434 31.7726 34.3145C30.6177 35.9855 29.9991 37.9687 29.9991 40C29.9991 42.0314 30.6177 44.0145 31.7726 45.6856C32.9276 47.3566 34.564 48.6364 36.4642 49.3544C38.3644 50.0725 40.4382 50.1948 42.4096 49.7051C44.3811 49.2155 46.1566 48.137 47.5 46.6134C48.0853 45.9503 48.9099 45.5469 49.7926 45.4919C50.6753 45.4369 51.5436 45.7348 52.2067 46.32C52.8697 46.9053 53.2731 47.7299 53.3281 48.6126C53.3831 49.4953 53.0853 50.3636 52.5 51.0267C50.6576 53.1149 48.3213 54.7081 45.7046 55.6609C43.0878 56.6137 40.2741 56.8956 37.5204 56.4808C34.7666 56.0661 32.1607 54.968 29.9406 53.2868C27.7206 51.6056 25.9572 49.395 24.8115 46.8568C23.6658 44.3186 23.1744 41.5337 23.3822 38.7567C23.5899 35.9797 24.4902 33.299 26.0007 30.9595C27.5113 28.62 29.584 26.6963 32.0295 25.3641C34.4749 24.0319 37.2152 23.3338 40 23.3334Z" fill="#7432E1"/>
</g>
<defs>
<clipPath id="clip0_964_567">
<rect width="80" height="80" fill="white"/>
</clipPath>
</defs>
</svg>
