<svg width="80" height="80" viewBox="0 0 80 80" fill="none" xmlns="http://www.w3.org/2000/svg">
<g clip-path="url(#clip0_964_569)">
<path fill-rule="evenodd" clip-rule="evenodd" d="M23.3333 30C23.3333 25.5797 25.0893 21.3405 28.2149 18.2149C31.3405 15.0893 35.5797 13.3333 40 13.3333C44.4203 13.3333 48.6595 15.0893 51.7851 18.2149C54.9107 21.3405 56.6667 25.5797 56.6667 30C56.6667 36.9933 52.0333 41.2533 48.24 46.5533C45.8533 49.8933 43.7333 53.9833 43.34 59.7733C43.0667 63.8333 40.1567 66.6667 36.6667 66.6667C34.8986 66.6667 33.2029 65.9643 31.9526 64.7141C30.7024 63.4638 30 61.7681 30 60C30 55.1533 33.55 51.76 38.75 47.6C43.41 43.8767 48.3167 40.4733 49.9 34.1433C50.9633 29.89 50.0667 26.2533 47.88 23.6767C46.9056 22.5362 45.6981 21.6179 44.3388 20.9837C42.9794 20.3495 41.4999 20.014 40 20C37.7829 19.9998 35.6286 20.7364 33.8757 22.094C32.1229 23.4517 30.8709 25.3533 30.3167 27.5C30.1172 28.3483 30.2579 29.241 30.7086 29.9869C31.1593 30.7328 31.8842 31.2724 32.728 31.4904C33.5718 31.7083 34.4673 31.5871 35.2228 31.1528C35.9784 30.7184 36.5337 30.0055 36.77 29.1667C36.9549 28.4507 37.3725 27.8166 37.9572 27.364C38.542 26.9114 39.2606 26.6661 40 26.6667C40.92 26.6667 42.0533 27.1133 42.8 27.99C43.44 28.7467 44.0367 30.11 43.4333 32.5233C42.3233 36.97 37.95 39.7067 34.5833 42.3967C29.7833 46.24 23.3333 51.5133 23.3333 60C23.3333 63.5362 24.7381 66.9276 27.2386 69.4281C29.7391 71.9286 33.1304 73.3333 36.6667 73.3333C44.2233 73.3333 49.52 67.19 49.9933 60.2267C50.2767 56.0167 51.76 53.0933 53.6633 50.43C58.3533 43.8767 63.3333 38.6233 63.3333 30C63.3316 26.7727 62.6604 23.5808 61.3621 20.6261C60.0639 17.6713 58.1668 15.0181 55.7907 12.834C53.4147 10.6499 50.6114 8.98246 47.5581 7.93707C44.5047 6.89167 41.2677 6.49106 38.0516 6.76055C34.8355 7.03004 31.7103 7.96378 28.8735 9.50274C26.0367 11.0417 23.5501 13.1524 21.5706 15.7015C19.5912 18.2505 18.1621 21.1825 17.3737 24.3121C16.5852 27.4416 16.4546 30.7007 16.99 33.8833C17.1542 34.7379 17.6461 35.4943 18.3605 35.991C19.075 36.4878 19.9554 36.6855 20.8136 36.5419C21.6718 36.3982 22.4399 35.9247 22.9537 35.2224C23.4675 34.5201 23.6863 33.6448 23.5633 32.7833C23.4096 31.8636 23.3326 30.9326 23.3333 30Z" fill="#7432E1"/>
</g>
<defs>
<clipPath id="clip0_964_569">
<rect width="80" height="80" fill="white"/>
</clipPath>
</defs>
</svg>
