<svg width="81" height="79" viewBox="0 0 81 79" fill="none" xmlns="http://www.w3.org/2000/svg">
<path d="M43.875 42.7917C47.4554 42.7917 50.8892 44.1789 53.4209 46.6481C55.9527 49.1173 57.375 52.4663 57.375 55.9583V60.8958C57.375 62.2053 56.8416 63.4612 55.8922 64.3872C54.9428 65.3131 53.6552 65.8333 52.3125 65.8333H11.8125C10.4698 65.8333 9.18217 65.3131 8.23277 64.3872C7.28337 63.4612 6.75 62.2053 6.75 60.8958V55.9583C6.75 52.4663 8.17232 49.1173 10.7041 46.6481C13.2358 44.1789 16.6696 42.7917 20.25 42.7917H43.875ZM64.125 42.7917C66.8103 42.7917 69.3857 43.8321 71.2845 45.684C73.1833 47.5359 74.25 50.0477 74.25 52.6667V57.6042C74.25 58.9137 73.7166 60.1695 72.7672 61.0955C71.8178 62.0215 70.5302 62.5417 69.1875 62.5417H64.125V55.9583C64.1271 53.4029 63.5181 50.8822 62.3463 48.5965C61.1746 46.3109 59.4724 44.3233 57.375 42.7917H64.125ZM32.0625 9.875C36.0905 9.875 39.9535 11.4356 42.8017 14.2135C45.6499 16.9914 47.25 20.759 47.25 24.6875C47.25 28.616 45.6499 32.3836 42.8017 35.1615C39.9535 37.9394 36.0905 39.5 32.0625 39.5C28.0345 39.5 24.1715 37.9394 21.3233 35.1615C18.4751 32.3836 16.875 28.616 16.875 24.6875C16.875 20.759 18.4751 16.9914 21.3233 14.2135C24.1715 11.4356 28.0345 9.875 32.0625 9.875ZM60.75 19.75C63.4353 19.75 66.0107 20.7904 67.9095 22.6423C69.8083 24.4942 70.875 27.006 70.875 29.625C70.875 32.244 69.8083 34.7558 67.9095 36.6077C66.0107 38.4596 63.4353 39.5 60.75 39.5C58.0647 39.5 55.4893 38.4596 53.5905 36.6077C51.6917 34.7558 50.625 32.244 50.625 29.625C50.625 27.006 51.6917 24.4942 53.5905 22.6423C55.4893 20.7904 58.0647 19.75 60.75 19.75Z" fill="#444444"/>
</svg>
