<svg width="80" height="80" viewBox="0 0 80 80" fill="none" xmlns="http://www.w3.org/2000/svg">
<g clip-path="url(#clip0_963_570)">
<path d="M40 6.66669C58.41 6.66669 73.3333 21.59 73.3333 40C73.3333 58.41 58.41 73.3334 40 73.3334C21.59 73.3334 6.66663 58.41 6.66663 40C6.66663 21.59 21.59 6.66669 40 6.66669ZM40 13.3334C32.9275 13.3334 26.1447 16.1429 21.1438 21.1438C16.1428 26.1448 13.3333 32.9276 13.3333 40C13.3333 47.0725 16.1428 53.8552 21.1438 58.8562C26.1447 63.8572 32.9275 66.6667 40 66.6667C47.0724 66.6667 53.8552 63.8572 58.8561 58.8562C63.8571 53.8552 66.6666 47.0725 66.6666 40C66.6666 32.9276 63.8571 26.1448 58.8561 21.1438C53.8552 16.1429 47.0724 13.3334 40 13.3334ZM40 23.3334C40.884 23.3334 41.7319 23.6845 42.357 24.3097C42.9821 24.9348 43.3333 25.7826 43.3333 26.6667V36.6667H53.3333C54.2173 36.6667 55.0652 37.0179 55.6903 37.643C56.3154 38.2681 56.6666 39.116 56.6666 40C56.6666 40.8841 56.3154 41.7319 55.6903 42.357C55.0652 42.9822 54.2173 43.3334 53.3333 43.3334H43.3333V53.3334C43.3333 54.2174 42.9821 55.0653 42.357 55.6904C41.7319 56.3155 40.884 56.6667 40 56.6667C39.1159 56.6667 38.2681 56.3155 37.6429 55.6904C37.0178 55.0653 36.6666 54.2174 36.6666 53.3334V43.3334H26.6666C25.7826 43.3334 24.9347 42.9822 24.3096 42.357C23.6845 41.7319 23.3333 40.8841 23.3333 40C23.3333 39.116 23.6845 38.2681 24.3096 37.643C24.9347 37.0179 25.7826 36.6667 26.6666 36.6667H36.6666V26.6667C36.6666 25.7826 37.0178 24.9348 37.6429 24.3097C38.2681 23.6845 39.1159 23.3334 40 23.3334Z" fill="#444444"/>
</g>
<defs>
<clipPath id="clip0_963_570">
<rect width="80" height="80" fill="white"/>
</clipPath>
</defs>
</svg>
