<svg width="80" height="80" viewBox="0 0 80 80" fill="none" xmlns="http://www.w3.org/2000/svg">
<g clip-path="url(#clip0_963_521)">
<path d="M40 6.66663C58.41 6.66663 73.3333 21.59 73.3333 40C73.3333 58.41 58.41 73.3333 40 73.3333C21.59 73.3333 6.66666 58.41 6.66666 40C6.66666 21.59 21.59 6.66663 40 6.66663ZM40 53.3333C32.6667 53.3333 26.17 56.0933 21.8833 59.5666C26.8074 64.1387 33.2806 66.6756 40 66.6666C46.7193 66.6756 53.1926 64.1387 58.1167 59.5666C53.83 56.0966 47.33 53.3333 40 53.3333ZM40 13.3333C35.2059 13.3324 30.5002 14.6238 26.3783 17.0718C22.2563 19.5197 18.8705 23.0336 16.5772 27.2436C14.2838 31.4536 13.1679 36.2039 13.3467 40.9947C13.5255 45.7854 14.9925 50.4393 17.5933 54.4666C23.09 49.9733 31.1167 46.6666 40 46.6666C48.8833 46.6666 56.91 49.9733 62.4067 54.4666C65.0074 50.4393 66.4745 45.7854 66.6533 40.9947C66.8321 36.2039 65.7161 31.4536 63.4228 27.2436C61.1295 23.0336 57.7437 19.5197 53.6217 17.0718C49.4997 14.6238 44.7941 13.3324 40 13.3333ZM40 16.6666C43.5362 16.6666 46.9276 18.0714 49.4281 20.5719C51.9286 23.0724 53.3333 26.4637 53.3333 30C53.3333 33.5362 51.9286 36.9276 49.4281 39.4281C46.9276 41.9285 43.5362 43.3333 40 43.3333C36.4638 43.3333 33.0724 41.9285 30.5719 39.4281C28.0714 36.9276 26.6667 33.5362 26.6667 30C26.6667 26.4637 28.0714 23.0724 30.5719 20.5719C33.0724 18.0714 36.4638 16.6666 40 16.6666ZM40 23.3333C38.2319 23.3333 36.5362 24.0357 35.2859 25.2859C34.0357 26.5362 33.3333 28.2318 33.3333 30C33.3333 31.7681 34.0357 33.4638 35.2859 34.714C36.5362 35.9642 38.2319 36.6666 40 36.6666C41.7681 36.6666 43.4638 35.9642 44.714 34.714C45.9643 33.4638 46.6667 31.7681 46.6667 30C46.6667 28.2318 45.9643 26.5362 44.714 25.2859C43.4638 24.0357 41.7681 23.3333 40 23.3333Z" fill="#444444"/>
</g>
<defs>
<clipPath id="clip0_963_521">
<rect width="80" height="80" fill="white"/>
</clipPath>
</defs>
</svg>
