<svg width="80" height="80" viewBox="0 0 80 80" fill="none" xmlns="http://www.w3.org/2000/svg">
<path d="M23.6667 37.8333C24.4445 36.2778 25.25 34.7778 26.0833 33.3333C26.9167 31.8889 27.8333 30.4444 28.8333 29L24.1667 28.0833L17.1667 35.0833L23.6667 37.8333ZM63.8333 14.9167C59.9445 15.0278 55.7922 16.1667 51.3767 18.3333C46.9589 20.5 42.9445 23.3889 39.3333 27C37 29.3333 34.9167 31.8333 33.0833 34.5C31.25 37.1667 29.8889 39.6667 29 42L38.5 51.4167C40.8333 50.5278 43.3333 49.1667 46 47.3333C48.6667 45.5 51.1667 43.4167 53.5 41.0833C57.1111 37.4722 60 33.4722 62.1667 29.0833C64.3333 24.6945 65.4722 20.5556 65.5833 16.6667C65.5833 16.4444 65.5422 16.2222 65.46 16C65.3756 15.7778 65.25 15.5833 65.0833 15.4167C64.9167 15.25 64.7222 15.1244 64.5 15.04C64.2778 14.9578 64.0556 14.9167 63.8333 14.9167ZM45.5 34.9167C44.2222 33.6389 43.5833 32.0689 43.5833 30.2067C43.5833 28.3467 44.2222 26.7778 45.5 25.5C46.7778 24.2222 48.3611 23.5833 50.25 23.5833C52.1389 23.5833 53.7222 24.2222 55 25.5C56.2778 26.7778 56.9167 28.3467 56.9167 30.2067C56.9167 32.0689 56.2778 33.6389 55 34.9167C53.7222 36.1945 52.1389 36.8333 50.25 36.8333C48.3611 36.8333 46.7778 36.1945 45.5 34.9167ZM42.6667 56.75L45.4167 63.3333L52.4167 56.3333L51.5 51.6667C50.0556 52.6667 48.6111 53.5689 47.1667 54.3733C45.7222 55.18 44.2222 55.9722 42.6667 56.75ZM71.9167 12.25C72.3611 18.3611 71.3611 24.3189 68.9167 30.1233C66.4722 35.93 62.6111 41.4722 57.3333 46.75L59 55C59.2222 56.1111 59.1667 57.1945 58.8333 58.25C58.5 59.3056 57.9444 60.2222 57.1667 61L46.6667 71.5C45.8333 72.3333 44.8333 72.6522 43.6667 72.4567C42.5 72.2633 41.6945 71.6111 41.25 70.5L36.1667 58.5833L21.9167 44.3333L10 39.25C8.8889 38.8056 8.22223 38 8.00001 36.8333C7.77779 35.6667 8.08334 34.6667 8.91668 33.8333L19.4167 23.3333C20.1945 22.5556 21.1256 22 22.21 21.6667C23.2922 21.3333 24.3889 21.2778 25.5 21.5L33.75 23.1667C39.0278 17.8889 44.57 14.0278 50.3767 11.5833C56.1811 9.13889 62.1389 8.13889 68.25 8.58334C68.6945 8.63889 69.1389 8.76334 69.5833 8.95667C70.0278 9.15223 70.4167 9.41667 70.75 9.75C71.0833 10.0833 71.3467 10.4722 71.54 10.9167C71.7356 11.3611 71.8611 11.8056 71.9167 12.25ZM13.0833 53.25C15.0278 51.3056 17.4022 50.3189 20.2067 50.29C23.0133 50.2633 25.3889 51.2222 27.3333 53.1667C29.2778 55.1111 30.2356 57.4856 30.2067 60.29C30.18 63.0967 29.1945 65.4722 27.25 67.4167C25.8611 68.8056 23.5422 70 20.2933 71C17.0422 72 12.5556 72.8889 6.83334 73.6667C7.61112 67.9445 8.50001 63.4578 9.50001 60.2067C10.5 56.9578 11.6945 54.6389 13.0833 53.25ZM17.8333 57.9167C17.2778 58.4722 16.7222 59.4867 16.1667 60.96C15.6111 62.4311 15.2222 63.9167 15 65.4167C16.5 65.1945 17.9867 64.82 19.46 64.2933C20.9311 63.7645 21.9445 63.2222 22.5 62.6667C23.1667 62 23.5278 61.1945 23.5833 60.25C23.6389 59.3056 23.3333 58.5 22.6667 57.8333C22 57.1667 21.1945 56.8467 20.25 56.8733C19.3056 56.9022 18.5 57.25 17.8333 57.9167Z" fill="#444444"/>
</svg>
