<svg width="80" height="80" viewBox="0 0 80 80" fill="none" xmlns="http://www.w3.org/2000/svg">
<g clip-path="url(#clip0_743_1201)">
<path fill-rule="evenodd" clip-rule="evenodd" d="M16.6667 33.3333C16.6667 28.9131 18.4226 24.6738 21.5482 21.5482C24.6739 18.4226 28.9131 16.6667 33.3334 16.6667C37.7536 16.6667 41.9929 18.4226 45.1185 21.5482C48.2441 24.6738 50 28.9131 50 33.3333C50 37.7536 48.2441 41.9928 45.1185 45.1184C41.9929 48.2441 37.7536 50 33.3334 50C28.9131 50 24.6739 48.2441 21.5482 45.1184C18.4226 41.9928 16.6667 37.7536 16.6667 33.3333ZM33.3334 10C29.6376 10 25.9946 10.8779 22.7045 12.5614C19.4144 14.245 16.5713 16.6859 14.4093 19.6834C12.2472 22.6808 10.8281 26.1489 10.2688 29.8021C9.7095 33.4554 10.026 37.1892 11.1922 40.6962C12.3584 44.2032 14.341 47.3829 16.9767 49.9737C19.6124 52.5645 22.8258 54.4921 26.3523 55.5978C29.8788 56.7036 33.6175 56.9558 37.2606 56.3338C40.9037 55.7118 44.3469 54.2332 47.3067 52.02L64.3067 69.0233C64.9317 69.6488 65.7796 70.0004 66.6638 70.0007C67.5481 70.001 68.3962 69.65 69.0217 69.025C69.6472 68.4 69.9987 67.5521 69.999 66.6678C69.9993 65.7836 69.6484 64.9355 69.0234 64.31L52.0234 47.31C54.6178 43.8417 56.1957 39.7197 56.5803 35.4056C56.965 31.0914 56.1413 26.7553 54.2013 22.8827C52.2614 19.0101 49.2819 15.7539 45.5963 13.4787C41.9108 11.2034 37.6647 9.99891 33.3334 10Z" fill="#444444"/>
</g>
<defs>
<clipPath id="clip0_743_1201">
<rect width="80" height="80" fill="white"/>
</clipPath>
</defs>
</svg>
