<svg width="80" height="80" viewBox="0 0 80 80" fill="none" xmlns="http://www.w3.org/2000/svg">
<g clip-path="url(#clip0_964_510)">
<path d="M53.3333 13.3333C54.1829 13.3343 55.0001 13.6596 55.6179 14.2428C56.2357 14.826 56.6074 15.6232 56.6572 16.4713C56.707 17.3194 56.4311 18.1546 55.8858 18.8061C55.3405 19.4576 54.567 19.8763 53.7233 19.9766L53.3333 20H18.3333C17.9168 19.9992 17.5152 20.1544 17.2074 20.435C16.8996 20.7156 16.708 21.1013 16.6704 21.5161C16.6328 21.9308 16.7518 22.3447 17.0041 22.6761C17.2563 23.0075 17.6235 23.2324 18.0333 23.3066L18.3333 23.3333H63.3333C65.0153 23.3328 66.6352 23.968 67.8685 25.1116C69.1018 26.2553 69.8572 27.8228 69.9833 29.5L70 30V60C70.0005 61.6819 69.3653 63.3019 68.2217 64.5351C67.078 65.7684 65.5105 66.5238 63.8333 66.65L63.3333 66.6666H16.6667C14.9847 66.6672 13.3648 66.032 12.1315 64.8883C10.8982 63.7447 10.1428 62.1772 10.0167 60.5L10 60V21.6666C9.99967 19.5509 10.8041 17.5143 12.2501 15.9698C13.6962 14.4254 15.6755 13.4888 17.7867 13.35L18.3333 13.3333H53.3333ZM16.6667 29.8333V60H63.3333V30H18.3333C17.9533 30 17.5767 29.9733 17.21 29.9266L16.6667 29.8333ZM51.6667 40C52.9927 40 54.2645 40.5268 55.2022 41.4644C56.1399 42.4021 56.6667 43.6739 56.6667 45C56.6667 46.3261 56.1399 47.5978 55.2022 48.5355C54.2645 49.4732 52.9927 50 51.6667 50C50.3406 50 49.0688 49.4732 48.1311 48.5355C47.1935 47.5978 46.6667 46.3261 46.6667 45C46.6667 43.6739 47.1935 42.4021 48.1311 41.4644C49.0688 40.5268 50.3406 40 51.6667 40Z" fill="#444444"/>
</g>
<defs>
<clipPath id="clip0_964_510">
<rect width="80" height="80" fill="white"/>
</clipPath>
</defs>
</svg>
