<svg width="60" height="60" viewBox="0 0 60 60" fill="none" xmlns="http://www.w3.org/2000/svg">
<path d="M13.4118 6.35315C12.6275 8.86295 12.6275 15.2943 12.7059 18.2747L24.3137 13.1767C20.2353 9.09825 16.1569 6.66687 14.5098 5.88256C13.8039 5.56883 13.5686 5.96099 13.4118 6.35315Z" fill="#7432E1"/>
<path d="M46.5882 6.35315C47.3726 8.86295 47.3726 15.2943 47.2941 18.2747L35.7647 13.1767C39.8431 9.09825 43.9216 6.66687 45.5686 5.88256C46.1961 5.56883 46.4314 5.96099 46.5882 6.35315Z" fill="#7432E1"/>
<path d="M29.9608 49.4903C43.4755 49.4903 54.4314 40.7818 54.4314 30.0394C54.4314 19.2969 43.4755 10.5884 29.9608 10.5884C16.446 10.5884 5.49017 19.2969 5.49017 30.0394C5.49017 40.7818 16.446 49.4903 29.9608 49.4903Z" fill="#7432E1"/>
<path d="M8.70583 54.1964C7.60779 54.1964 6.58819 53.3337 6.35289 52.2356C6.19603 50.9023 7.05877 49.7258 8.39211 49.4905C12.3137 48.8631 14.9019 47.5297 16.0784 45.4905C17.4901 43.0592 16.4705 40.0788 16.4705 40.0788C16 38.9023 16.6274 37.4905 17.8823 37.0199C19.0588 36.5494 20.4705 37.1768 20.9411 38.3533C21.0196 38.5886 22.8235 43.2945 20.2352 47.765C18.3529 51.0592 14.5882 53.2552 9.17642 54.118C8.94113 54.1964 8.8627 54.1964 8.70583 54.1964Z" fill="#7432E1"/>
</svg>
