<svg width="152" height="152" viewBox="0 0 152 152" fill="none" xmlns="http://www.w3.org/2000/svg">
<path d="M33.9764 16.0943C31.9894 22.4524 31.9894 38.7452 32.1881 46.2956L61.5947 33.3805C51.2626 23.0485 40.9306 16.889 36.7581 14.9021C34.9698 14.1073 34.3738 15.1008 33.9764 16.0943Z" fill="#7432E1"/>
<path d="M118.023 16.0943C120.01 22.4524 120.01 38.7452 119.812 46.2956L90.6038 33.3805C100.936 23.0485 111.268 16.889 115.44 14.9021C117.03 14.1073 117.626 15.1008 118.023 16.0943Z" fill="#7432E1"/>
<path d="M75.9006 125.375C110.138 125.375 137.893 103.314 137.893 76.0995C137.893 48.8853 110.138 26.8237 75.9006 26.8237C41.6633 26.8237 13.9084 48.8853 13.9084 76.0995C13.9084 103.314 41.6633 125.375 75.9006 125.375Z" fill="#7432E1"/>
<path d="M22.0549 137.297C19.2732 137.297 16.6902 135.111 16.0941 132.33C15.6967 128.952 17.8823 125.972 21.2601 125.376C31.1948 123.786 37.7516 120.408 40.732 115.242C44.3085 109.083 41.7255 101.532 41.7255 101.532C40.5333 98.552 42.1229 94.9755 45.302 93.7834C48.2823 92.5912 51.8588 94.1808 53.051 97.1611C53.2497 97.7572 57.8196 109.679 51.2627 121.004C46.4941 129.349 36.9569 134.913 23.2471 137.098C22.651 137.297 22.4523 137.297 22.0549 137.297Z" fill="#7432E1"/>
</svg>
