<svg width="96" height="96" viewBox="0 0 96 96" fill="none" xmlns="http://www.w3.org/2000/svg">
<path d="M21.4588 10.1648C20.2039 14.1805 20.2039 24.4707 20.3294 29.2393L38.902 21.0825C32.3765 14.557 25.851 10.6668 23.2157 9.4119C22.0863 8.90994 21.7098 9.53739 21.4588 10.1648Z" fill="#7432E1"/>
<path d="M74.5412 10.1648C75.7961 14.1805 75.7961 24.4707 75.6706 29.2393L57.2235 21.0825C63.749 14.557 70.2745 10.6668 72.9098 9.4119C73.9137 8.90994 74.2902 9.53739 74.5412 10.1648Z" fill="#7432E1"/>
<path d="M47.9372 79.1845C69.5608 79.1845 87.0902 65.2509 87.0902 48.063C87.0902 30.875 69.5608 16.9414 47.9372 16.9414C26.3137 16.9414 8.7843 30.875 8.7843 48.063C8.7843 65.2509 26.3137 79.1845 47.9372 79.1845Z" fill="#7432E1"/>
<path d="M13.9294 86.7138C12.1725 86.7138 10.5412 85.3334 10.1647 83.5765C9.91371 81.4432 11.2941 79.5608 13.4274 79.1844C19.7019 78.1804 23.8431 76.0471 25.7255 72.7844C27.9843 68.8942 26.3529 64.1255 26.3529 64.1255C25.6 62.2432 26.6039 59.9844 28.6117 59.2314C30.4941 58.4785 32.7529 59.4824 33.5059 61.3648C33.6314 61.7412 36.5176 69.2706 32.3765 76.4236C29.3647 81.6942 23.3412 85.2079 14.6823 86.5883C14.3059 86.7138 14.1804 86.7138 13.9294 86.7138Z" fill="#7432E1"/>
</svg>
