<svg width="192" height="192" viewBox="0 0 192 192" fill="none" xmlns="http://www.w3.org/2000/svg">
<path d="M42.9176 20.3292C40.4078 28.3606 40.4078 48.941 40.6588 58.4782L77.8039 42.1645C64.7529 29.1135 51.7019 21.3331 46.4313 18.8233C44.1725 17.8194 43.4196 19.0743 42.9176 20.3292Z" fill="#7432E1"/>
<path d="M149.082 20.3292C151.592 28.3606 151.592 48.941 151.341 58.4782L114.447 42.1645C127.498 29.1135 140.549 21.3331 145.82 18.8233C147.827 17.8194 148.58 19.0743 149.082 20.3292Z" fill="#7432E1"/>
<path d="M95.8745 158.369C139.122 158.369 174.18 130.501 174.18 96.1255C174.18 61.7495 139.122 33.8823 95.8745 33.8823C52.6273 33.8823 17.5686 61.7495 17.5686 96.1255C17.5686 130.501 52.6273 158.369 95.8745 158.369Z" fill="#7432E1"/>
<path d="M27.8588 173.427C24.3451 173.427 21.0823 170.666 20.3294 167.153C19.8274 162.886 22.5882 159.121 26.8549 158.368C39.4039 156.36 47.6862 152.094 51.4509 145.568C55.9686 137.788 52.7058 128.251 52.7058 128.251C51.2 124.486 53.2078 119.968 57.2235 118.462C60.9882 116.956 65.5058 118.964 67.0117 122.729C67.2627 123.482 73.0353 138.541 64.7529 152.847C58.7294 163.388 46.6823 170.415 29.3647 173.176C28.6117 173.427 28.3607 173.427 27.8588 173.427Z" fill="#7432E1"/>
</svg>
