<svg width="36" height="36" viewBox="0 0 36 36" fill="none" xmlns="http://www.w3.org/2000/svg">
<path d="M8.04706 3.81169C7.57647 5.31758 7.57647 9.1764 7.62353 10.9646L14.5882 7.90581C12.1412 5.45875 9.69412 3.99993 8.70589 3.52934C8.28236 3.34111 8.14118 3.5764 8.04706 3.81169Z" fill="#7432E1"/>
<path d="M27.953 3.81169C28.4235 5.31758 28.4235 9.1764 28.3765 10.9646L21.4588 7.90581C23.9059 5.45875 26.3529 3.99993 27.3412 3.52934C27.7177 3.34111 27.8588 3.5764 27.953 3.81169Z" fill="#7432E1"/>
<path d="M17.9765 29.6942C26.0853 29.6942 32.6588 24.4691 32.6588 18.0236C32.6588 11.5781 26.0853 6.35303 17.9765 6.35303C9.86764 6.35303 3.29413 11.5781 3.29413 18.0236C3.29413 24.4691 9.86764 29.6942 17.9765 29.6942Z" fill="#7432E1"/>
<path d="M5.22353 32.5174C4.56471 32.5174 3.95294 31.9997 3.81177 31.3409C3.71765 30.5409 4.23529 29.835 5.03529 29.6938C7.38824 29.3174 8.94118 28.5174 9.64706 27.2938C10.4941 25.835 9.88235 24.0468 9.88235 24.0468C9.6 23.3409 9.97647 22.4938 10.7294 22.2115C11.4353 21.9291 12.2824 22.3056 12.5647 23.0115C12.6118 23.1527 13.6941 25.9762 12.1412 28.6585C11.0118 30.635 8.75294 31.9527 5.50588 32.4703C5.36471 32.5174 5.31765 32.5174 5.22353 32.5174Z" fill="#7432E1"/>
</svg>
