<svg width="16" height="16" viewBox="0 0 16 16" fill="none" xmlns="http://www.w3.org/2000/svg">
<path d="M3.57647 1.69398C3.36732 2.36326 3.36732 4.07829 3.38824 4.87306L6.48366 3.51358C5.39608 2.426 4.3085 1.77764 3.86928 1.56849C3.68105 1.48483 3.6183 1.5894 3.57647 1.69398Z" fill="#7432E1"/>
<path d="M12.4235 1.69398C12.6327 2.36326 12.6327 4.07829 12.6118 4.87306L9.53726 3.51358C10.6248 2.426 11.7124 1.77764 12.1516 1.56849C12.319 1.48483 12.3817 1.5894 12.4235 1.69398Z" fill="#7432E1"/>
<path d="M7.98954 13.1971C11.5935 13.1971 14.515 10.8748 14.515 8.01017C14.515 5.14551 11.5935 2.82324 7.98954 2.82324C4.38561 2.82324 1.46405 5.14551 1.46405 8.01017C1.46405 10.8748 4.38561 13.1971 7.98954 13.1971Z" fill="#7432E1"/>
<path d="M2.32156 14.4524C2.02874 14.4524 1.75685 14.2223 1.6941 13.9295C1.65227 13.5739 1.88234 13.2602 2.2379 13.1975C3.28365 13.0302 3.97384 12.6746 4.28757 12.1308C4.66404 11.4824 4.39214 10.6877 4.39214 10.6877C4.26665 10.3739 4.43397 9.99747 4.76861 9.87198C5.08234 9.74649 5.45881 9.91382 5.5843 10.2275C5.60522 10.2903 6.08626 11.5452 5.39606 12.7373C4.8941 13.6158 3.89018 14.2014 2.44705 14.4315C2.3843 14.4524 2.36339 14.4524 2.32156 14.4524Z" fill="#7432E1"/>
</svg>
