<svg width="114" height="114" viewBox="0 0 114 114" fill="none" xmlns="http://www.w3.org/2000/svg">
<path d="M25.4823 12.0707C23.9921 16.8393 23.9921 29.0589 24.1412 34.7217L46.1961 25.0354C38.447 17.2864 30.698 12.6668 27.5686 11.1766C26.2274 10.5805 25.7804 11.3256 25.4823 12.0707Z" fill="#7432E1"/>
<path d="M88.5177 12.0707C90.0078 16.8393 90.0078 29.0589 89.8588 34.7217L67.9529 25.0354C75.702 17.2864 83.451 12.6668 86.5804 11.1766C87.7725 10.5805 88.2196 11.3256 88.5177 12.0707Z" fill="#7432E1"/>
<path d="M56.9255 94.0314C82.6035 94.0314 103.42 77.4853 103.42 57.0745C103.42 36.6638 82.6035 20.1177 56.9255 20.1177C31.2475 20.1177 10.4314 36.6638 10.4314 57.0745C10.4314 77.4853 31.2475 94.0314 56.9255 94.0314Z" fill="#7432E1"/>
<path d="M16.5412 102.972C14.4549 102.972 12.5176 101.333 12.0706 99.247C11.7725 96.7136 13.4118 94.4783 15.9451 94.0313C23.3961 92.8391 28.3137 90.3058 30.549 86.4313C33.2314 81.8117 31.2941 76.1489 31.2941 76.1489C30.4 73.9136 31.5922 71.2313 33.9765 70.3372C36.2118 69.443 38.8941 70.6352 39.7882 72.8705C39.9372 73.3176 43.3647 82.2587 38.4471 90.7528C34.8706 97.0117 27.7176 101.184 17.4353 102.823C16.9882 102.972 16.8392 102.972 16.5412 102.972Z" fill="#7432E1"/>
</svg>
