<svg width="73" height="72" viewBox="0 0 73 72" fill="none" xmlns="http://www.w3.org/2000/svg">
<path d="M16.5941 7.62339C15.6529 10.6352 15.6529 18.3528 15.7471 21.9293L29.6765 15.8116C24.7824 10.9175 19.8882 7.99986 17.9118 7.05868C17.0647 6.68221 16.7824 7.1528 16.5941 7.62339Z" fill="#7432E1"/>
<path d="M56.4059 7.62339C57.3471 10.6352 57.3471 18.3528 57.253 21.9293L43.4177 15.8116C48.3118 10.9175 53.2059 7.99986 55.1824 7.05868C55.9353 6.68221 56.2177 7.1528 56.4059 7.62339Z" fill="#7432E1"/>
<path d="M36.453 59.3879C52.6706 59.3879 65.8177 48.9377 65.8177 36.0467C65.8177 23.1558 52.6706 12.7056 36.453 12.7056C20.2353 12.7056 7.08826 23.1558 7.08826 36.0467C7.08826 48.9377 20.2353 59.3879 36.453 59.3879Z" fill="#7432E1"/>
<path d="M10.9471 65.0352C9.62941 65.0352 8.40588 63.9999 8.12353 62.6823C7.9353 61.0823 8.97059 59.6705 10.5706 59.3881C15.2765 58.6352 18.3824 57.0352 19.7941 54.5881C21.4882 51.6705 20.2647 48.094 20.2647 48.094C19.7 46.6823 20.4529 44.9881 21.9588 44.4234C23.3706 43.8587 25.0647 44.6117 25.6294 46.0234C25.7235 46.3058 27.8882 51.9529 24.7824 57.3176C22.5235 61.2705 18.0059 63.9058 11.5118 64.9411C11.2294 65.0352 11.1353 65.0352 10.9471 65.0352Z" fill="#7432E1"/>
</svg>
