<svg width="144" height="144" viewBox="0 0 144 144" fill="none" xmlns="http://www.w3.org/2000/svg">
<path d="M32.1882 15.2473C30.3058 21.2708 30.3058 36.7061 30.4941 43.859L58.3529 31.6237C48.5647 21.8355 38.7764 16.0002 34.8235 14.1178C33.1294 13.3649 32.5647 14.3061 32.1882 15.2473Z" fill="#7432E1"/>
<path d="M111.812 15.2473C113.694 21.2708 113.694 36.7061 113.506 43.859L85.8353 31.6237C95.6235 21.8355 105.412 16.0002 109.365 14.1178C110.871 13.3649 111.435 14.3061 111.812 15.2473Z" fill="#7432E1"/>
<path d="M71.9059 118.777C104.341 118.777 130.635 97.8764 130.635 72.0945C130.635 46.3125 104.341 25.4121 71.9059 25.4121C39.4705 25.4121 13.1765 46.3125 13.1765 72.0945C13.1765 97.8764 39.4705 118.777 71.9059 118.777Z" fill="#7432E1"/>
<path d="M20.8941 130.071C18.2588 130.071 15.8118 128 15.2471 125.365C14.8706 122.165 16.9412 119.341 20.1412 118.777C29.5529 117.271 35.7647 114.071 38.5882 109.177C41.9765 103.341 39.5294 96.1885 39.5294 96.1885C38.4 93.365 39.9059 89.9768 42.9176 88.8474C45.7412 87.718 49.1294 89.2238 50.2588 92.0474C50.4471 92.6121 54.7765 103.906 48.5647 114.636C44.0471 122.541 35.0118 127.812 22.0235 129.883C21.4588 130.071 21.2706 130.071 20.8941 130.071Z" fill="#7432E1"/>
</svg>
