<svg width="120" height="120" viewBox="0 0 120 120" fill="none" xmlns="http://www.w3.org/2000/svg">
<path d="M26.8235 12.7058C25.2549 17.7254 25.2549 30.5882 25.4118 36.5489L48.6275 26.3529C40.4706 18.196 32.3137 13.3333 29.0196 11.7646C27.6079 11.1372 27.1373 11.9215 26.8235 12.7058Z" fill="#7432E1"/>
<path d="M93.1765 12.7058C94.7451 17.7254 94.7451 30.5882 94.5882 36.5489L71.5294 26.3529C79.6863 18.196 87.8431 13.3333 91.1373 11.7646C92.3922 11.1372 92.8628 11.9215 93.1765 12.7058Z" fill="#7432E1"/>
<path d="M59.9216 98.9802C86.951 98.9802 108.863 81.5632 108.863 60.0782C108.863 38.5933 86.951 21.1763 59.9216 21.1763C32.8921 21.1763 10.9804 38.5933 10.9804 60.0782C10.9804 81.5632 32.8921 98.9802 59.9216 98.9802Z" fill="#7432E1"/>
<path d="M17.4118 108.392C15.2157 108.392 13.1765 106.666 12.7059 104.47C12.3922 101.804 14.1177 99.4507 16.7843 98.9801C24.6275 97.7252 29.8039 95.0585 32.1569 90.9801C34.9804 86.1173 32.9412 80.1566 32.9412 80.1566C32 77.8036 33.2549 74.9801 35.7647 74.0389C38.1177 73.0977 40.9412 74.3526 41.8824 76.7056C42.0392 77.1762 45.6471 86.5879 40.4706 95.5291C36.7059 102.117 29.1765 106.509 18.353 108.235C17.8824 108.392 17.7255 108.392 17.4118 108.392Z" fill="#7432E1"/>
</svg>
