<svg width="57" height="57" viewBox="0 0 57 57" fill="none" xmlns="http://www.w3.org/2000/svg">
<path d="M12.7412 6.03534C11.9961 8.41966 11.9961 14.5295 12.0706 17.3608L23.0981 12.5177C19.2236 8.64319 15.3491 6.33338 13.7844 5.58828C13.1138 5.29025 12.8902 5.66279 12.7412 6.03534Z" fill="#7432E1"/>
<path d="M44.2589 6.03534C45.004 8.41966 45.004 14.5295 44.9294 17.3608L33.9765 12.5177C37.851 8.64319 41.7255 6.33338 43.2902 5.58828C43.8863 5.29025 44.1098 5.66279 44.2589 6.03534Z" fill="#7432E1"/>
<path d="M28.4628 47.0159C41.3018 47.0159 51.7098 38.7429 51.7098 28.5375C51.7098 18.3322 41.3018 10.0591 28.4628 10.0591C15.6238 10.0591 5.2157 18.3322 5.2157 28.5375C5.2157 38.7429 15.6238 47.0159 28.4628 47.0159Z" fill="#7432E1"/>
<path d="M8.27062 51.4865C7.22748 51.4865 6.25885 50.6669 6.03532 49.6237C5.8863 48.3571 6.70591 47.2394 7.97258 47.0159C11.6981 46.4198 14.1569 45.1531 15.2745 43.2159C16.6157 40.9061 15.6471 38.0747 15.6471 38.0747C15.2 36.9571 15.7961 35.6159 16.9883 35.1688C18.1059 34.7218 19.4471 35.3178 19.8941 36.4355C19.9687 36.659 21.6824 41.1296 19.2236 45.3767C17.4353 48.5061 13.8589 50.5924 8.71768 51.412C8.49415 51.4865 8.41964 51.4865 8.27062 51.4865Z" fill="#7432E1"/>
</svg>
