<svg width="70" height="70" viewBox="0 0 70 70" fill="none" xmlns="http://www.w3.org/2000/svg">
<path d="M15.6471 7.41201C14.732 10.3401 14.732 17.8434 14.8235 21.3205L28.366 15.3728C23.6079 10.6146 18.8497 7.77802 16.9281 6.86299C16.1046 6.49697 15.8301 6.95449 15.6471 7.41201Z" fill="#7432E1"/>
<path d="M54.353 7.41201C55.268 10.3401 55.268 17.8434 55.1765 21.3205L41.7255 15.3728C46.4837 10.6146 51.2419 7.77802 53.1634 6.86299C53.8955 6.49697 54.17 6.95449 54.353 7.41201Z" fill="#7432E1"/>
<path d="M34.9542 57.7386C50.7214 57.7386 63.5033 47.5787 63.5033 35.0458C63.5033 22.5129 50.7214 12.353 34.9542 12.353C19.187 12.353 6.40521 22.5129 6.40521 35.0458C6.40521 47.5787 19.187 57.7386 34.9542 57.7386Z" fill="#7432E1"/>
<path d="M10.1568 63.2289C8.87579 63.2289 7.68625 62.2224 7.41174 60.9413C7.22873 59.3858 8.23527 58.0132 9.79082 57.7387C14.366 57.0067 17.3856 55.4511 18.7581 53.072C20.4052 50.2354 19.2157 46.7583 19.2157 46.7583C18.6666 45.3858 19.3987 43.7387 20.8627 43.1897C22.2353 42.6407 23.8823 43.3727 24.4313 44.7452C24.5228 45.0198 26.6274 50.51 23.6078 55.7256C21.4117 59.5688 17.0196 62.1309 10.7059 63.1374C10.4313 63.2289 10.3398 63.2289 10.1568 63.2289Z" fill="#7432E1"/>
</svg>
