<svg width="48" height="48" viewBox="0 0 48 48" fill="none" xmlns="http://www.w3.org/2000/svg">
<path d="M10.7294 5.08242C10.102 7.09026 10.102 12.2354 10.1647 14.6197L19.451 10.5412C16.1882 7.2785 12.9255 5.3334 11.6078 4.70595C11.0431 4.45497 10.8549 4.7687 10.7294 5.08242Z" fill="#7432E1"/>
<path d="M37.2706 5.08242C37.898 7.09026 37.898 12.2354 37.8353 14.6197L28.6118 10.5412C31.8745 7.2785 35.1372 5.3334 36.4549 4.70595C36.9569 4.45497 37.1451 4.7687 37.2706 5.08242Z" fill="#7432E1"/>
<path d="M23.9686 39.5923C34.7804 39.5923 43.5451 32.6255 43.5451 24.0315C43.5451 15.4375 34.7804 8.4707 23.9686 8.4707C13.1568 8.4707 4.39215 15.4375 4.39215 24.0315C4.39215 32.6255 13.1568 39.5923 23.9686 39.5923Z" fill="#7432E1"/>
<path d="M6.96473 43.3571C6.0863 43.3571 5.27061 42.6669 5.08237 41.7885C4.95688 40.7218 5.64708 39.7807 6.71375 39.5924C9.851 39.0905 11.9216 38.0238 12.8628 36.3924C13.9922 34.4473 13.1765 32.063 13.1765 32.063C12.8 31.1218 13.302 29.9924 14.3059 29.616C15.2471 29.2395 16.3765 29.7414 16.753 30.6826C16.8157 30.8709 18.2588 34.6356 16.1883 38.212C14.6824 40.8473 11.6706 42.6042 7.3412 43.2944C7.15296 43.3571 7.09022 43.3571 6.96473 43.3571Z" fill="#7432E1"/>
</svg>
