<svg width="76" height="76" viewBox="0 0 76 76" fill="none" xmlns="http://www.w3.org/2000/svg">
<path d="M16.9882 8.04713C15.9948 11.2262 15.9948 19.3726 16.0941 23.1478L30.7974 16.6903C25.6314 11.5242 20.4654 8.44451 18.3791 7.45105C17.485 7.05366 17.1869 7.55039 16.9882 8.04713Z" fill="#7432E1"/>
<path d="M59.0118 8.04713C60.0053 11.2262 60.0053 19.3726 59.9059 23.1478L45.302 16.6903C50.468 11.5242 55.634 8.44451 57.7203 7.45105C58.5151 7.05366 58.8131 7.55039 59.0118 8.04713Z" fill="#7432E1"/>
<path d="M37.9503 62.6874C55.069 62.6874 68.9464 51.6567 68.9464 38.0495C68.9464 24.4424 55.069 13.4116 37.9503 13.4116C20.8316 13.4116 6.95422 24.4424 6.95422 38.0495C6.95422 51.6567 20.8316 62.6874 37.9503 62.6874Z" fill="#7432E1"/>
<path d="M11.0274 68.6483C9.6366 68.6483 8.3451 67.5555 8.04706 66.1646C7.84836 64.4758 8.94117 62.9856 10.6301 62.6875C15.5974 61.8927 18.8758 60.2039 20.366 57.6209C22.1542 54.5411 20.8627 50.7659 20.8627 50.7659C20.2667 49.2758 21.0614 47.4875 22.651 46.8914C24.1412 46.2954 25.9294 47.0901 26.5255 48.5803C26.6248 48.8784 28.9098 54.8392 25.6314 60.5019C23.2471 64.6744 18.4784 67.4561 11.6235 68.549C11.3255 68.6483 11.2261 68.6483 11.0274 68.6483Z" fill="#7432E1"/>
</svg>
