<svg width="32" height="32" viewBox="0 0 32 32" fill="none" xmlns="http://www.w3.org/2000/svg">
<path d="M7.15294 3.38844C6.73464 4.72701 6.73464 8.15707 6.77647 9.74661L12.9673 7.02766C10.7922 4.8525 8.617 3.55576 7.73857 3.13746C7.36209 2.97014 7.2366 3.17929 7.15294 3.38844Z" fill="#7432E1"/>
<path d="M24.8471 3.38844C25.2654 4.72701 25.2654 8.15707 25.2235 9.74661L19.0745 7.02766C21.2497 4.8525 23.4249 3.55576 24.3033 3.13746C24.6379 2.97014 24.7634 3.17929 24.8471 3.38844Z" fill="#7432E1"/>
<path d="M15.9791 26.3952C23.1869 26.3952 29.0301 21.7506 29.0301 16.0213C29.0301 10.292 23.1869 5.64746 15.9791 5.64746C8.77122 5.64746 2.9281 10.292 2.9281 16.0213C2.9281 21.7506 8.77122 26.3952 15.9791 26.3952Z" fill="#7432E1"/>
<path d="M4.64314 28.9048C4.05752 28.9048 3.51373 28.4446 3.38824 27.859C3.30458 27.1479 3.76471 26.5204 4.47582 26.3949C6.56732 26.0603 7.94772 25.3492 8.57517 24.2616C9.32811 22.9649 8.78432 21.3753 8.78432 21.3753C8.53334 20.7479 8.86798 19.9949 9.53726 19.744C10.1647 19.493 10.9177 19.8276 11.1686 20.4551C11.2105 20.5806 12.1726 23.0904 10.7922 25.4747C9.78824 27.2316 7.7804 28.4028 4.89412 28.8629C4.76863 28.9048 4.7268 28.9048 4.64314 28.9048Z" fill="#7432E1"/>
</svg>
