<svg width="180" height="180" viewBox="0 0 180 180" fill="none" xmlns="http://www.w3.org/2000/svg">
<path d="M40.2353 19.059C37.8824 26.5884 37.8824 45.8825 38.1177 54.8237L72.9412 39.5295C60.7059 27.2942 48.4706 20.0001 43.5294 17.6472C41.4118 16.706 40.7059 17.8825 40.2353 19.059Z" fill="#7432E1"/>
<path d="M139.765 19.059C142.118 26.5884 142.118 45.8825 141.882 54.8237L107.294 39.5295C119.529 27.2942 131.765 20.0001 136.706 17.6472C138.588 16.706 139.294 17.8825 139.765 19.059Z" fill="#7432E1"/>
<path d="M89.8823 148.471C130.427 148.471 163.294 122.345 163.294 90.1176C163.294 57.8901 130.427 31.7646 89.8823 31.7646C49.3382 31.7646 16.4706 57.8901 16.4706 90.1176C16.4706 122.345 49.3382 148.471 89.8823 148.471Z" fill="#7432E1"/>
<path d="M26.1177 162.588C22.8236 162.588 19.7647 160 19.0589 156.706C18.5883 152.706 21.1765 149.176 25.1765 148.471C36.9412 146.588 44.7059 142.588 48.2353 136.471C52.4706 129.176 49.4118 120.235 49.4118 120.235C48 116.706 49.8824 112.471 53.6471 111.059C57.1765 109.647 61.4118 111.529 62.8236 115.059C63.0589 115.765 68.4706 129.882 60.7059 143.294C55.0589 153.177 43.7647 159.765 27.5294 162.353C26.8236 162.588 26.5883 162.588 26.1177 162.588Z" fill="#7432E1"/>
</svg>
