<?xml version="1.0" encoding="utf-8"?>
<!-- Generator: Adobe Illustrator 27.2.0, SVG Export Plug-In . SVG Version: 6.00 Build 0)  -->
<svg version="1.1" id="레이어_1" xmlns="http://www.w3.org/2000/svg" xmlns:xlink="http://www.w3.org/1999/xlink" x="0px"
	 y="0px" viewBox="0 0 76.5 76.5" style="enable-background:new 0 0 76.5 76.5;" xml:space="preserve">
<style type="text/css">
	.st0{fill:#7432E1;}
</style>
<g>
	<g>
		<path class="st0" d="M17.1,8.1c-1,3.2-1,11.4-0.9,15.2L31,16.8c-5.2-5.2-10.4-8.3-12.5-9.3C17.6,7.1,17.3,7.6,17.1,8.1z"/>
		<path class="st0" d="M59.4,8.1c1,3.2,1,11.4,0.9,15.2l-14.7-6.5c5.2-5.2,10.4-8.3,12.5-9.3C58.9,7.1,59.2,7.6,59.4,8.1z"/>
	</g>
	<ellipse class="st0" cx="38.2" cy="38.3" rx="31.2" ry="24.8"/>
	<path class="st0" d="M11.1,69.1c-1.4,0-2.7-1.1-3-2.5c-0.2-1.7,0.9-3.2,2.6-3.5c5-0.8,8.3-2.5,9.8-5.1c1.8-3.1,0.5-6.9,0.5-6.9
		c-0.6-1.5,0.2-3.3,1.8-3.9c1.5-0.6,3.3,0.2,3.9,1.7c0.1,0.3,2.4,6.3-0.9,12c-2.4,4.2-7.2,7-14.1,8.1C11.4,69.1,11.3,69.1,11.1,69.1
		z"/>
</g>
</svg>
