<?xml version="1.0" encoding="utf-8"?>
<!-- Generator: Adobe Illustrator 27.2.0, SVG Export Plug-In . SVG Version: 6.00 Build 0)  -->
<svg version="1.1" id="레이어_1" xmlns="http://www.w3.org/2000/svg" xmlns:xlink="http://www.w3.org/1999/xlink" x="0px"
	 y="0px" viewBox="0 0 76.5 76.5" style="enable-background:new 0 0 76.5 76.5;" xml:space="preserve">
<style type="text/css">
	.st0{fill:#F2F4F5;}
</style>
<path class="st0" d="M66.5,41.8V17.9c-0.9-0.6-1.7-1.2-2.6-1.8c0-5-0.3-11.1-1.2-13.9c-0.2-0.6-0.6-1.2-1.8-0.8
	c-2.2,1.1-7.2,4.1-12.7,8.9c-2-0.3-4.1-0.4-6.4-0.4c-3.4,0-6.5,0.3-9.3,0.9c-5.7-5.1-11-8.3-13.2-9.4c-1.2-0.4-1.6,0.2-1.8,0.8
	c-1.2,3.7-1.3,12.9-1.1,18.1c-4.1,5.4-6.3,12.7-6.3,22.1c0,21.4,11.2,32.5,28.6,32.5c11.5,0,19.4-2.2,27.8-9.6v-21
	c-11.6,0-22.9-0.7-35.4-3.6v-2.4C44.5,40.9,54.1,41.8,66.5,41.8z"/>
</svg>
