<svg width="440" height="74" viewBox="0 0 440 74" fill="none" xmlns="http://www.w3.org/2000/svg">
<path d="M0.0993042 10.04H57.3793V30.44H42.3393V72.6H15.1393V30.44H0.0993042V10.04Z" fill="#7432E1"/>
<path d="M87.4593 10.04V72.6H60.8193V10.04H87.4593Z" fill="#7432E1"/>
<path d="M91.5612 41.32C91.5612 19.96 102.761 8.84 123.321 8.84C133.161 8.84 140.761 11.4 147.961 16.84V40.76C135.561 40.76 125.961 39.8 112.601 37.16V39.56C125.081 42.44 136.361 43.16 147.961 43.16V64.2C139.481 71.64 131.641 73.8 120.121 73.8C102.761 73.8 91.5612 62.76 91.5612 41.32Z" fill="#7432E1"/>
<path d="M178.108 72.52H149.308L168.508 10.04H195.708L214.908 72.52H186.108L182.108 59.56L178.108 72.52ZM173.099 39L171.099 41C177.099 44 187.099 44 193.099 41L191.099 39.1C185.099 41 179.099 41 173.099 39Z" fill="#7432E1"/>
<path d="M208.306 10.04H265.586V30.44H250.546V72.6H223.346V30.44H208.306V10.04Z" fill="#7432E1"/>
<path d="M375.863 72.52H326.663V10.04H355.463V50.28H375.863V72.52Z" fill="#7432E1"/>
<path d="M405.954 72.52H378.754V10.04H405.954V19.4L400.674 34.36L402.834 34.92L411.394 10.04H439.394L427.474 41.24L439.394 72.52H411.394L405.954 56.68V72.52Z" fill="#7432E1"/>
<path d="M287.799 72.52H258.999L278.199 10.04H305.399L324.599 72.52H295.799L291.799 59.56L287.799 72.52ZM282.791 39L280.791 41C286.791 44 296.791 44 302.791 41L300.791 39.1C294.791 41 288.791 41 282.791 39Z" fill="#7432E1"/>
<path d="M98.9866 1.16713C97.6664 5.12768 97.7031 15.6525 97.8864 20.4198L116.589 12.1687C109.988 5.56772 103.343 1.62643 100.776 0.342929C99.559 -0.059309 99.1995 0.528166 98.9866 1.16713Z" fill="#7432E1"/>
<path d="M144.191 1.16713C145.512 5.12768 145.475 15.6525 145.292 20.4198L126.589 12.1687C133.19 5.56772 139.835 1.62643 142.402 0.342929C143.619 -0.059309 143.978 0.528166 144.191 1.16713Z" fill="#7432E1"/>
</svg>
