<svg width="168" height="28" viewBox="0 0 168 28" fill="none" xmlns="http://www.w3.org/2000/svg">
<path d="M0 3.73979H21.7946V11.5018H16.072V27.5434H5.7226V11.5018H0V3.73979Z" fill="#333333"/>
<path d="M33.2398 3.73979V27.5434H23.1035V3.73979H33.2398Z" fill="#333333"/>
<path d="M34.8005 15.6416C34.8005 7.51427 39.062 3.2832 46.8849 3.2832C50.629 3.2832 53.5207 4.25726 56.2602 6.32714V15.4285C51.5421 15.4285 47.8894 15.0632 42.806 14.0587V14.9719C47.5546 16.0677 51.8465 16.3417 56.2602 16.3417V24.3472C53.0337 27.1781 50.0506 28 45.6673 28C39.062 28 34.8005 23.7993 34.8005 15.6416Z" fill="#333333"/>
<path d="M67.7309 27.5129H56.7727L64.0781 3.73979H74.4275L81.733 27.5129H70.7748L69.2528 22.5817L67.7309 27.5129ZM65.8251 14.7588L65.0641 15.5198C67.347 16.6613 71.152 16.6613 73.4349 15.5198L72.6739 14.7969C70.391 15.5198 68.108 15.5198 65.8251 14.7588Z" fill="#333333"/>
<path d="M79.2208 3.73979H101.015V11.5018H95.2927V27.5434H84.9434V11.5018H79.2208V3.73979Z" fill="#333333"/>
<path d="M142.975 27.5129H124.255V3.73979H135.213V19.0508H142.975V27.5129Z" fill="#333333"/>
<path d="M154.424 27.5129H144.075V3.73979H154.424V7.3012L152.415 12.9934L153.237 13.2064L156.494 3.73979H167.148L162.612 15.6111L167.148 27.5129H156.494L154.424 21.4859V27.5129Z" fill="#333333"/>
<path d="M109.467 27.5129H98.5093L105.815 3.73979H116.164L123.47 27.5129H112.511L110.989 22.5817L109.467 27.5129ZM107.562 14.7588L106.801 15.5198C109.084 16.6613 112.889 16.6613 115.172 15.5198L114.411 14.7969C112.128 15.5198 109.845 15.5198 107.562 14.7588Z" fill="#333333"/>
<path d="M37.6257 0.363788C37.1234 1.87075 37.1374 5.87535 37.2071 7.68928L44.3233 4.54978C41.8117 2.03818 39.2834 0.53855 38.3067 0.050187C37.8436 -0.102861 37.7068 0.120668 37.6257 0.363788Z" fill="#333333"/>
<path d="M54.8258 0.363788C55.3281 1.87075 55.3142 5.87535 55.2444 7.68928L48.1282 4.54978C50.6398 2.03818 53.1681 0.53855 54.1448 0.050187C54.608 -0.102861 54.7448 0.120668 54.8258 0.363788Z" fill="#333333"/>
</svg>
