<svg width="440" height="74" viewBox="0 0 440 74" fill="none" xmlns="http://www.w3.org/2000/svg">
<path d="M0 9.82897H57.28V30.229H42.24V72.389H15.04V30.229H0V9.82897Z" fill="#F2F4F5"/>
<path d="M87.36 9.82897V72.389H60.72V9.82897H87.36Z" fill="#F2F4F5"/>
<path d="M91.4619 41.109C91.4619 19.749 102.662 8.62897 123.222 8.62897C133.062 8.62897 140.662 11.189 147.862 16.629V40.549C135.462 40.549 125.862 39.589 112.502 36.949V39.349C124.982 42.229 136.262 42.949 147.862 42.949V63.989C139.382 71.429 131.542 73.589 120.022 73.589C102.662 73.589 91.4619 62.549 91.4619 41.109Z" fill="#F2F4F5"/>
<path d="M178.009 72.309H149.209L168.409 9.82897H195.609L214.809 72.309H186.009L182.009 59.349L178.009 72.309ZM173 38.789L171 40.789C177 43.789 187 43.789 193 40.789L191 38.889C185 40.789 179 40.789 173 38.789Z" fill="#F2F4F5"/>
<path d="M208.206 9.82897H265.486V30.229H250.446V72.389H223.246V30.229H208.206V9.82897Z" fill="#F2F4F5"/>
<path d="M375.764 72.309H326.564V9.82897H355.364V50.069H375.764V72.309Z" fill="#F2F4F5"/>
<path d="M405.854 72.309H378.654V9.82897H405.854V19.189L400.574 34.149L402.734 34.709L411.294 9.82897H439.294L427.374 41.029L439.294 72.309H411.294L405.854 56.469V72.309Z" fill="#F2F4F5"/>
<path d="M287.7 72.309H258.9L278.1 9.82897H305.3L324.5 72.309H295.7L291.7 59.349L287.7 72.309ZM282.691 38.789L280.691 40.789C286.691 43.789 296.691 43.789 302.691 40.789L300.691 38.889C294.691 40.789 288.691 40.789 282.691 38.789Z" fill="#F2F4F5"/>
<path d="M98.8873 0.9561C97.5671 4.91665 97.6037 15.4415 97.7871 20.2088L116.49 11.9576C109.889 5.35669 103.244 1.41541 100.677 0.1319C99.4597 -0.270338 99.1002 0.317137 98.8873 0.9561Z" fill="#F2F4F5"/>
<path d="M144.092 0.9561C145.412 4.91665 145.376 15.4415 145.192 20.2088L126.49 11.9576C133.091 5.35669 139.735 1.41541 142.302 0.1319C143.52 -0.270338 143.879 0.317137 144.092 0.9561Z" fill="#F2F4F5"/>
</svg>
